<?xml version="1.0" ?><svg height="48px" version="1.1" viewBox="0 0 48 48" width="48px" xmlns="http://www.w3.org/2000/svg" xmlns:sketch="http://www.bohemiancoding.com/sketch/ns" xmlns:xlink="http://www.w3.org/1999/xlink"><title/><desc/><defs><path d="M29,38 C31.209139,38 33,36.209139 33,34 C33,31.790861 34.790861,30 37,30 C39.209139,30 41,28.209139 41,26 C37.6862915,26 35,23.3137085 35,20 L35,17 C35,8.71572875 28.2842712,2 20,2 C11.7157288,2 5,8.71572875 5,17 L5,24 C5,33.9411255 13.0588745,42 23,42 L25,42 C25,39.790861 26.790861,38 29,38" id="path-1"/></defs><g fill="none" fill-rule="evenodd" id="Page-1" stroke="none" stroke-width="1"><g id="Fill" transform="translate(-130.000000, -42.000000)"><g id="ghost" transform="translate(132.000000, 44.000000)"><rect fill="#000000" height="44" id="cont" opacity="0" width="44" x="0" y="0"/><g id="Oval-11-Copy"><use fill="#FFFFFF" xlink:href="#path-1"/><use fill="#282F37" fill-opacity="0.1" xlink:href="#path-1"/></g><path d="M38.8334922,29.5559792 C40.1203193,28.8911362 41,27.5482983 41,26 C37.6862915,26 35,23.3137085 35,20 L35,17 C35,8.71572875 28.2842712,2 20,2 C19.1482195,2 18.3130212,2.07099699 17.5,2.2073961 C24.5942834,3.39759133 30,9.56750928 30,17 L30,22 C30,25.8659932 33.1340068,29 37,29 C37.5360789,29 38.0580831,28.9397392 38.5596082,28.8256219 L38.5596082,28.8256219 L38.8334922,29.5559792 L38.8334922,29.5559792 Z" fill="#282F37" fill-opacity="0.200294384" id="Oval-11-Copy-5"/><path d="M22.5,2.2073961 C21.6869788,2.07099699 20.8517805,2 20,2 C11.7157288,2 5,8.71572875 5,17 L5,24 C5,33.9411255 13.0588745,42 23,42 L25,42 C25,41.9168456 25.0025374,41.8342838 25.007539,41.7523878 C16.49069,40.3272611 10,32.9216215 10,24 L10,17 C10,9.56750928 15.4057166,3.39759133 22.5,2.2073961 L22.5,2.2073961 Z" fill="#FFFFFF" id="Oval-11-Copy-3"/><path d="M29,38 C31.209139,38 33,36.209139 33,34 C33,31.790861 34.790861,30 37,30 C39.209139,30 41,28.209139 41,26 C37.6862915,26 35,23.3137085 35,20 L35,17 C35,8.71572875 28.2842712,2 20,2 C11.7157288,2 5,8.71572875 5,17 L5,24 C5,33.9411255 13.0588745,42 23,42 L25,42 C25,39.790861 26.790861,38 29,38" id="Oval-11-Copy-2" stroke="#282F37" stroke-linecap="round" stroke-linejoin="round" stroke-width="2"/><circle cx="14" cy="14" fill="#7E8287" id="Oval-10-Copy-6" r="3" stroke="#282F37" stroke-width="2"/><circle cx="26" cy="14" fill="#7E8287" id="Oval-10-Copy-7" r="3" stroke="#282F37" stroke-width="2"/><path d="" id="Path-44" stroke="#979797"/></g></g></g></svg>